<svg width="12" height="13" viewBox="0 0 12 13" fill="none" xmlns="http://www.w3.org/2000/svg">
<path d="M11.4483 0.14894C11.2777 0.0156742 11.0551 -0.0315291 10.8451 0.0210178L3.34509 1.89602C3.03211 1.97425 2.8125 2.2555 2.8125 2.57814V8.32408C2.59242 8.24603 2.35584 8.20314 2.10938 8.20314C0.946266 8.20314 0 9.14941 0 10.3125C0 11.4756 0.946266 12.4219 2.10938 12.4219C3.27248 12.4219 4.21875 11.4756 4.21875 10.3125V5.21486L10.3125 3.69142V7.38658C10.0924 7.30853 9.85589 7.26564 9.60938 7.26564C8.44627 7.26564 7.5 8.21191 7.5 9.37502C7.5 10.5381 8.44627 11.4844 9.60938 11.4844C10.7725 11.4844 11.7188 10.5381 11.7188 9.37502V0.703143C11.7188 0.486627 11.619 0.282205 11.4483 0.14894Z" fill="black"/>
</svg>
